# xmcd
#
# Track frame offsets:
#	150
#	23848
#	77390
#	102400
#	147629
#	195824
#	229576
#
# Disc length: 3627 seconds
#
# Revision: 0
# Processed by: cddbd v1.5.2PL0 Copyright (c) Steve Scherf et al.
# Submitted via: audiograbber 1.83.01
#
DISCID=4c0e2907
DTITLE=Grateful Dead - 94-07-02 Shoreline Amphitheatre, Mountain View CA
DYEAR=1900
DGENRE=
TTITLE0=The Music Never Stopped
TTITLE1=Sugaree
TTITLE2=The Music Never Stopped
TTITLE3=Friend Of The Devil
TTITLE4=Desolation Row
TTITLE5=Tennessee Jed
TTITLE6=Eternity
EXTD=
EXTT0=
EXTT1=
EXTT2=
EXTT3=
EXTT4=
EXTT5=
EXTT6=
PLAYORDER=
